<svg id="Layer_1" data-name="Layer 1" xmlns="http://www.w3.org/2000/svg" viewBox="0 0 100 100"><defs><style>.cls-1{fill:#fff;}.cls-2{fill:#aa7265;}</style></defs><rect class="cls-1" width="100" height="100"/><path class="cls-2" d="M95,34.33a20.77,20.77,0,0,1-.55,4.55c-.37,1.66-.72,2.48-1.07,2.48A.35.35,0,0,1,93,41a1.4,1.4,0,0,1,.08-.36,16.56,16.56,0,0,0,1.08-6,11.07,11.07,0,0,0-3-8.08,10.62,10.62,0,0,0-7.91-3q-6.6,0-13.58,4.35,5.58,4.16,5.58,9.7,0,8.9-12.09,10.57,9.95,3.48,9.94,12.74,0,6.86-5.85,12A20,20,0,0,1,53.57,78a8.72,8.72,0,0,1-6-1.94,6.61,6.61,0,0,1-2.22-5.25q0-5.1,4.69-10.11t9.44-5a5.9,5.9,0,0,1,4.31,1.65,5.73,5.73,0,0,1,1.68,4.25,10.61,10.61,0,0,1-1,3.88q-1,2.31-1.56,2.31c-.29,0-.44-.11-.44-.32a1.24,1.24,0,0,1,.16-.48,10,10,0,0,0,2.08-5.47,4.81,4.81,0,0,0-1.48-3.67,5.38,5.38,0,0,0-3.86-1.39q-4.5,0-8.8,4.75c-2.87,3.16-4.3,6.4-4.3,9.69a5.9,5.9,0,0,0,1.79,4.39A6.13,6.13,0,0,0,52.6,77q6.1,0,11.18-5.93a19.61,19.61,0,0,0,5.08-13q0-6.61-6.39-9.74l-2.31.28a15.47,15.47,0,0,1-1.92.12q-3,0-3-1c0-.48.84-.72,2.51-.72a21.13,21.13,0,0,1,4.75.72A12.73,12.73,0,0,0,69,43.24a11.86,11.86,0,0,0,2.41-7.35,10.22,10.22,0,0,0-3.07-7.22q-8.74,6.7-16.44,22.75-4.75,9.86-8.7,14.29a36.17,36.17,0,0,1-10.9,7.78Q24,77.56,17.45,77.56a15.28,15.28,0,0,1-8.9-2.46A7.22,7.22,0,0,1,5,69a5.29,5.29,0,0,1,1.22-3.51A3.62,3.62,0,0,1,9.11,64c1.62,0,2.44.9,2.44,2.71A3.48,3.48,0,0,1,10.73,69a2.56,2.56,0,0,1-2,1c-1.38,0-2.05-.72-2-2.16,0-.58,0-.88-.16-.88-.43,0-.64.71-.64,2.12a6.48,6.48,0,0,0,3.25,5.51,14.37,14.37,0,0,0,8.2,2.19,23,23,0,0,0,15.85-6.47,41.43,41.43,0,0,0,5.35-5.84Q40.83,61.39,49,48.94a105.49,105.49,0,0,1,9.5-12.09,58.86,58.86,0,0,1,9.3-8.74Q61.48,22.8,49.5,22.8,32.66,22.8,20.21,35,10,45,10,53.77a9.2,9.2,0,0,0,2.87,7.11,11.11,11.11,0,0,0,7.79,2.63q8,0,16.58-7.7t8.56-15q0-5.79-5.95-5.79t-12.75,6.6q-6.81,6.6-6.8,12.42a3.56,3.56,0,0,0,.95,2.48,3,3,0,0,0,2.24,1c.45.08.68.19.68.32s-.26.36-.76.36a3.93,3.93,0,0,1-3.23-1.73,6.83,6.83,0,0,1-1.32-4.25q0-6.18,6.82-12.06t14-5.89q6.87,0,6.87,6.35,0,7.74-8.74,15.65t-17.24,7.9a12,12,0,0,1-8.88-3.33A12,12,0,0,1,8.35,52q0-11.29,12.75-20.62A46.74,46.74,0,0,1,49.3,22Q60.91,22,69,27.27q7.31-4.55,14.13-4.55a11.79,11.79,0,0,1,8.6,3.19A11.27,11.27,0,0,1,95,34.33Z"/></svg>